<?xml version="1.0" encoding="utf-8"?>
<!-- Generator: Adobe Illustrator 26.0.1, SVG Export Plug-In . SVG Version: 6.00 Build 0)  -->
<svg version="1.1" id="Capa_1" xmlns="http://www.w3.org/2000/svg" xmlns:xlink="http://www.w3.org/1999/xlink" x="0px" y="0px"
	 viewBox="0 0 512 512" style="enable-background:new 0 0 512 512;" xml:space="preserve">
<style type="text/css">
	.st0{fill:#00A9E3;}
</style>
<g>
	<g>
		<path class="st0" d="M298.5,33.6c-31.7-21.4-68.7-32.7-107-32.7C85.9,0.9,0,86.8,0,192.4s85.9,191.4,191.4,191.4
			c4.2,0,7.6-3.4,7.6-7.6c0-4.2-3.4-7.6-7.6-7.6c-97.2,0-176.2-79-176.2-176.2s79-176.2,176.2-176.2c35.3,0,69.4,10.4,98.5,30.1
			c3.5,2.4,8.2,1.4,10.6-2C302.9,40.7,302,36,298.5,33.6z"/>
	</g>
</g>
<g>
	<g>
		<path class="st0" d="M300.2,340.7c-2.4-3.5-7.1-4.4-10.6-2.1c-19.4,13-40.8,22-63.7,26.5c-4.1,0.8-6.8,4.8-6,9
			c0.7,3.6,3.9,6.1,7.5,6.1c0.5,0,1,0,1.5-0.1c24.8-4.9,48.1-14.6,69.2-28.8C301.6,349,302.6,344.2,300.2,340.7z"/>
	</g>
</g>
<g>
	<g>
		<path class="st0" d="M299.7,293.2c-2.9-3-7.8-3.1-10.8-0.2c-26.3,25.5-60.9,39.5-97.5,39.5c-0.4,0-0.7,0-1.1,0
			c-37-0.3-71.9-14.9-98-41c-26.5-26.5-41-61.7-41-99.1c0-37.4,14.6-72.6,41-99.1c26.2-26.2,61-40.8,98-41c37-0.3,72,13.7,98.5,39.4
			c3,2.9,7.8,2.8,10.8-0.2c2.9-3,2.9-7.8-0.2-10.8c-29.4-28.5-68.2-44-109.2-43.7c-41.1,0.3-79.7,16.5-108.7,45.5
			C52.2,111.8,36,150.9,36,192.4s16.2,80.5,45.5,109.9c29,29,67.6,45.2,108.7,45.5c0.4,0,0.8,0,1.2,0c40.6,0,78.9-15.5,108.1-43.8
			C302.5,301.1,302.6,296.2,299.7,293.2z"/>
	</g>
</g>
<g>
	<g>
		<path class="st0" d="M199,185.2v-56.1c15.8,2.8,27.7,14,27.7,27.5c0,4.2,3.4,7.6,7.6,7.6c4.2,0,7.6-3.4,7.6-7.6
			c0-21.7-18.7-39.7-42.9-42.9v-7.2c0-4.2-3.4-7.6-7.6-7.6s-7.6,3.4-7.6,7.6v7.2c-24.3,3.2-42.9,21.2-42.9,42.9s18.7,39.7,42.9,42.9
			v56.1c-15.8-2.8-27.7-14-27.7-27.5c0-4.2-3.4-7.6-7.6-7.6c-4.2,0-7.6,3.4-7.6,7.6c0,21.7,18.7,39.7,42.9,42.9v7.2
			c0,4.2,3.4,7.6,7.6,7.6s7.6-3.4,7.6-7.6V271c24.3-3.2,42.9-21.2,42.9-42.9S223.3,188.4,199,185.2z M183.8,184.1
			c-15.8-2.8-27.7-14-27.7-27.5s11.9-24.7,27.7-27.5V184.1z M199,255.6v-55c15.8,2.8,27.7,14,27.7,27.5S214.9,252.8,199,255.6z"/>
	</g>
</g>
<g>
	<g>
		<path class="st0" d="M511.5,386.3c-1.1-2.9-4-4.8-7.1-4.8h-48V260.4c0-4.2-3.4-7.6-7.6-7.6c-4.2,0-7.6,3.4-7.6,7.6v128.7
			c0,4.2,3.4,7.6,7.6,7.6h36.4L382.3,493l-102.8-96.3h36.4c4.2,0,7.6-3.4,7.6-7.6V16.2h117.6v213.7c0,4.2,3.4,7.6,7.6,7.6
			c4.2,0,7.6-3.4,7.6-7.6V8.6c0-4.2-3.4-7.6-7.6-7.6H315.9c-4.2,0-7.6,3.4-7.6,7.6v372.9h-48c-3.1,0-5.9,1.9-7.1,4.8
			s-0.4,6.2,1.9,8.4L377.1,509c1.5,1.4,3.3,2.1,5.2,2.1s3.7-0.7,5.2-2.1l122.1-114.3C511.9,392.5,512.6,389.2,511.5,386.3z"/>
	</g>
</g>
</svg>
