<?xml version="1.0" encoding="UTF-8"?> <svg xmlns="http://www.w3.org/2000/svg" viewBox="0 0 83.22 87.42"><g fill="#5b9bd3"><path d="m9.51 29.16h12.67v8.35h-12.67z"></path><path d="m27.74 29.16h12.67v8.35h-12.67z"></path><path d="m45.67 29.16h12.67v8.35h-12.67z"></path><path d="m9.51 41.84h12.67v8.35h-12.67z"></path><path d="m27.74 41.84h12.67v8.35h-12.67z"></path><path d="m45.67 41.84v7.78a23.75 23.75 0 0 1 12.68-6.51v-1.27z"></path><path d="m9.51 54.51h12.67v8.35h-12.67z"></path><path d="m27.74 54.51v8.34h11.11a24.06 24.06 0 0 1 1.57-5.49v-2.85z"></path><path d="m48 19.2a7.5 7.5 0 0 1 -4.91-7v-4.91h-18.36v4.87a7.51 7.51 0 0 1 -4.92 7z"></path><path d="m5.79 69.73a2.86 2.86 0 0 1 -2.85-2.85v-47.68h11.72a7.51 7.51 0 0 1 -4.92-7v-4.91h-3.95a5.8 5.8 0 0 0 -5.79 5.79v53.8a5.8 5.8 0 0 0 5.79 5.79h32.21a24.54 24.54 0 0 1 -.55-2.94z"></path><path d="m63.91 19.2h1.31v22.42a24.08 24.08 0 0 1 2.94.51v-29.05a5.8 5.8 0 0 0 -5.79-5.79h-4.26v4.87a7.52 7.52 0 0 1 -4.91 7z"></path><path d="m16.47 14.63a2.69 2.69 0 0 0 1.54 0 2.61 2.61 0 0 0 1.69-1.7 2.47 2.47 0 0 0 .11-.77v-9.58a2.37 2.37 0 0 0 -.11-.76 2.56 2.56 0 0 0 -1.7-1.7 2.5 2.5 0 0 0 -1.53 0 2.57 2.57 0 0 0 -1.7 1.69 2.53 2.53 0 0 0 -.12.77v9.58a2.53 2.53 0 0 0 .12.77 2.6 2.6 0 0 0 1.7 1.7z"></path><path d="m49.85 14.63a2.69 2.69 0 0 0 1.54 0 2.59 2.59 0 0 0 1.69-1.7 2.53 2.53 0 0 0 .12-.77v-9.58a2.53 2.53 0 0 0 -.12-.77 2.55 2.55 0 0 0 -1.69-1.69 2.53 2.53 0 0 0 -1.54 0 2.59 2.59 0 0 0 -1.7 1.69 2.87 2.87 0 0 0 -.11.77v9.58a2.87 2.87 0 0 0 .11.77 2.62 2.62 0 0 0 1.7 1.7z"></path><path d="m62.36 45.71a20.86 20.86 0 1 0 20.86 20.85 20.87 20.87 0 0 0 -20.86-20.85zm0 38.95a18.1 18.1 0 1 1 18.1-18.1 18.12 18.12 0 0 1 -18.1 18.1z"></path><path d="m69.78 70.44a4.7 4.7 0 0 1 -1.71 3.8 8.5 8.5 0 0 1 -4.79 1.76v3h-2v-3a16.64 16.64 0 0 1 -6.37-1.28v-3.91a16.21 16.21 0 0 0 3.09 1.13 16.47 16.47 0 0 0 3.25.58v-4.61l-1-.39a11.08 11.08 0 0 1 -4.18-2.52 4.84 4.84 0 0 1 -1.23-3.37 4.39 4.39 0 0 1 1.69-3.55 8.6 8.6 0 0 1 4.71-1.69v-2.28h2v2.22a17 17 0 0 1 6.16 1.37l-1.4 3.48a16.26 16.26 0 0 0 -4.72-1.18v4.39a23.15 23.15 0 0 1 4.13 1.94 5.51 5.51 0 0 1 1.8 1.8 4.47 4.47 0 0 1 .57 2.31zm-10.46-8.81a1.41 1.41 0 0 0 .45 1.08 5.6 5.6 0 0 0 1.47.87v-3.5c-1.24.19-1.92.71-1.92 1.55zm6 9a1.34 1.34 0 0 0 -.5-1 6.81 6.81 0 0 0 -1.52-.9v3.71c1.33-.25 2-.83 2-1.78z"></path></g></svg> 