<?xml version="1.0" encoding="UTF-8" standalone="no"?>
<svg
   xmlns:dc="http://purl.org/dc/elements/1.1/"
   xmlns:cc="http://creativecommons.org/ns#"
   xmlns:rdf="http://www.w3.org/1999/02/22-rdf-syntax-ns#"
   xmlns:svg="http://www.w3.org/2000/svg"
   xmlns="http://www.w3.org/2000/svg"
   xmlns:sodipodi="http://sodipodi.sourceforge.net/DTD/sodipodi-0.dtd"
   xmlns:inkscape="http://www.inkscape.org/namespaces/inkscape"
   version="1.1"
   id="svg10"
   xml:space="preserve"
   width="615.48627"
   height="526.4212"
   viewBox="0 0 615.48627 526.42121"
   sodipodi:docname="6578714.svg"
   inkscape:version="1.0.2 (e86c870, 2021-01-15)"><metadata
     id="metadata16"><rdf:RDF><cc:Work
         rdf:about=""><dc:format>image/svg+xml</dc:format><dc:type
           rdf:resource="http://purl.org/dc/dcmitype/StillImage" /><dc:title></dc:title></cc:Work></rdf:RDF></metadata><defs
     id="defs14"><clipPath
       clipPathUnits="userSpaceOnUse"
       id="clipPath30"><path
         d="M 0,500 H 500 V 0 H 0 Z"
         id="path28" /></clipPath><clipPath
       clipPathUnits="userSpaceOnUse"
       id="clipPath186"><path
         d="m 212.992,157.416 c -1.962,0 -3.552,-1.59 -3.552,-3.552 v 0 -27.705 c 0,-1.961 1.59,-3.551 3.552,-3.551 v 0 h 20.246 c 1.962,0 3.552,1.59 3.552,3.551 v 0 27.705 c 0,1.962 -1.59,3.552 -3.552,3.552 v 0 z"
         id="path184" /></clipPath><clipPath
       clipPathUnits="userSpaceOnUse"
       id="clipPath202"><path
         d="M 0,500 H 500 V 0 H 0 Z"
         id="path200" /></clipPath><clipPath
       clipPathUnits="userSpaceOnUse"
       id="clipPath214"><path
         d="m 266.736,157.416 c -1.962,0 -3.553,-1.59 -3.553,-3.552 v 0 -27.705 c 0,-1.961 1.591,-3.551 3.553,-3.551 v 0 h 20.245 c 1.961,0 3.552,1.59 3.552,3.551 v 0 27.705 c 0,1.962 -1.591,3.552 -3.552,3.552 v 0 z"
         id="path212" /></clipPath><clipPath
       clipPathUnits="userSpaceOnUse"
       id="clipPath230"><path
         d="M 0,500 H 500 V 0 H 0 Z"
         id="path228" /></clipPath><clipPath
       clipPathUnits="userSpaceOnUse"
       id="clipPath268"><path
         d="m 226.546,207.874 h 73.603 v -52.286 h -73.603 z"
         id="path266" /></clipPath><clipPath
       clipPathUnits="userSpaceOnUse"
       id="clipPath284"><path
         d="m 225.742,161.219 h 69.581 v 48.263 h -69.581 z"
         id="path282" /></clipPath><clipPath
       clipPathUnits="userSpaceOnUse"
       id="clipPath308"><path
         d="M 0,500 H 500 V 0 H 0 Z"
         id="path306" /></clipPath><clipPath
       clipPathUnits="userSpaceOnUse"
       id="clipPath318"><path
         d="m 202.949,208.632 h 13.584 v -13.584 h -13.584 z"
         id="path316" /></clipPath><clipPath
       clipPathUnits="userSpaceOnUse"
       id="clipPath338"><path
         d="m 202.949,191.886 h 13.584 v -13.584 h -13.584 z"
         id="path336" /></clipPath><clipPath
       clipPathUnits="userSpaceOnUse"
       id="clipPath358"><path
         d="m 202.949,175.14 h 13.584 v -13.585 h -13.584 z"
         id="path356" /></clipPath><clipPath
       clipPathUnits="userSpaceOnUse"
       id="clipPath398"><path
         d="m 208.258,272.024 h 26.948 v -26.947 h -26.948 z"
         id="path396" /></clipPath><clipPath
       clipPathUnits="userSpaceOnUse"
       id="clipPath418"><path
         d="m 267.382,272.024 h 26.947 v -26.947 h -26.947 z"
         id="path416" /></clipPath><clipPath
       clipPathUnits="userSpaceOnUse"
       id="clipPath442"><path
         d="M 77.1346,316.875 H 148.871 V 245.138 H 77.1346 Z"
         id="path440" /></clipPath><clipPath
       clipPathUnits="userSpaceOnUse"
       id="clipPath490"><path
         d="m 354.101,316.875 h 71.736 v -71.737 h -71.736 z"
         id="path488" /></clipPath><clipPath
       clipPathUnits="userSpaceOnUse"
       id="clipPath522"><path
         d="M 216.364,85.9401 H 288.1 V 14.2038 h -71.736 z"
         id="path520" /></clipPath></defs><sodipodi:namedview
     pagecolor="#ffffff"
     bordercolor="#666666"
     borderopacity="1"
     objecttolerance="10"
     gridtolerance="10"
     guidetolerance="10"
     inkscape:pageopacity="0"
     inkscape:pageshadow="2"
     inkscape:window-width="2560"
     inkscape:window-height="1346"
     id="namedview12"
     showgrid="false"
     fit-margin-top="20"
     fit-margin-left="20"
     fit-margin-right="20"
     fit-margin-bottom="20"
     lock-margins="true"
     inkscape:zoom="1.6949999"
     inkscape:cx="303.67188"
     inkscape:cy="239.22404"
     inkscape:window-x="-11"
     inkscape:window-y="-11"
     inkscape:window-maximized="1"
     inkscape:current-layer="g302" /><g
     id="g18"
     inkscape:groupmode="layer"
     inkscape:label="6578714"
     transform="matrix(1.3333333,0,0,-1.3333333,-29.661465,525.35972)"><g
       id="g20"
       transform="translate(228.5372,379.0198)"><path
         d="M 0,0 21.23,-12.257 0,-24.514 Z"
         style="fill:#aed2fd;fill-opacity:1;fill-rule:nonzero;stroke:none"
         id="path22" /></g><g
       id="g24"><g
         id="g26"
         clip-path="url(#clipPath30)"><g
           id="g32"
           transform="translate(241.3222,368.0134)"><path
             d="m 0,0 c -81.592,-4.415 -146.394,-71.968 -146.394,-154.661 0,-25.191 6.018,-48.973 16.687,-69.998"
             style="fill:none;stroke:#aed2fd;stroke-width:6.756;stroke-linecap:butt;stroke-linejoin:miter;stroke-miterlimit:10;stroke-dasharray:none;stroke-opacity:1"
             id="path34" /></g><g
           id="g36"
           transform="translate(405.0451,150.2995)"><path
             d="m 0,0 -20.267,-13.791 -1.81,24.448 z"
             style="fill:#aed2fd;fill-opacity:1;fill-rule:nonzero;stroke:none"
             id="path38" /></g><g
           id="g40"
           transform="translate(388.0336,143.3546)"><path
             d="m 0,0 c 10.669,21.024 16.687,44.807 16.687,69.997 0,82.694 -64.802,150.247 -146.394,154.662"
             style="fill:none;stroke:#aed2fd;stroke-width:6.756;stroke-linecap:butt;stroke-linejoin:miter;stroke-miterlimit:10;stroke-dasharray:none;stroke-opacity:1"
             id="path42" /></g><g
           id="g44"
           transform="translate(136.0939,126.4928)"><path
             d="m 0,0 -20.267,-13.791 -1.81,24.448 z"
             style="fill:#aed2fd;fill-opacity:1;fill-rule:nonzero;stroke:none"
             id="path46" /></g><g
           id="g48"
           transform="translate(119.6357,129.4007)"><path
             d="m 0,0 c 27.583,-42.687 75.584,-70.945 130.189,-70.945 54.604,0 102.605,28.258 130.189,70.945"
             style="fill:none;stroke:#aed2fd;stroke-width:6.756;stroke-linecap:butt;stroke-linejoin:miter;stroke-miterlimit:10;stroke-dasharray:none;stroke-opacity:1"
             id="path50" /></g><g
           id="g52"
           transform="translate(364.2461,213.352)"><path
             d="m 0,0 c 0,63.104 -51.156,114.26 -114.26,114.26 -63.104,0 -114.259,-51.156 -114.259,-114.26 0,-63.104 51.155,-114.26 114.259,-114.26 C -51.156,-114.26 0,-63.104 0,0"
             style="fill:#aed2fd;fill-opacity:1;fill-rule:nonzero;stroke:none"
             id="path54" /></g><g
           id="g56"
           transform="translate(461.7643,335.5408)"><path
             d="M 0,0 V -7.192"
             style="fill:none;stroke:#aed2fd;stroke-width:4;stroke-linecap:round;stroke-linejoin:round;stroke-miterlimit:10;stroke-dasharray:none;stroke-opacity:1"
             id="path58" /></g><g
           id="g60"
           transform="translate(458.1684,331.945)"><path
             d="M 0,0 H 7.192"
             style="fill:none;stroke:#aed2fd;stroke-width:4;stroke-linecap:round;stroke-linejoin:round;stroke-miterlimit:10;stroke-dasharray:none;stroke-opacity:1"
             id="path62" /></g><g
           id="g64"
           transform="translate(444.9559,186.5408)"><path
             d="M 0,0 V -7.192"
             style="fill:none;stroke:#aed2fd;stroke-width:4;stroke-linecap:round;stroke-linejoin:round;stroke-miterlimit:10;stroke-dasharray:none;stroke-opacity:1"
             id="path66" /></g><g
           id="g68"
           transform="translate(441.36,182.945)"><path
             d="M 0,0 H 7.192"
             style="fill:none;stroke:#aed2fd;stroke-width:4;stroke-linecap:round;stroke-linejoin:round;stroke-miterlimit:10;stroke-dasharray:none;stroke-opacity:1"
             id="path70" /></g><g
           id="g72"
           transform="translate(361.6101,74.4372)"><path
             d="M 0,0 V -16.192"
             style="fill:none;stroke:#aed2fd;stroke-width:4;stroke-linecap:round;stroke-linejoin:round;stroke-miterlimit:10;stroke-dasharray:none;stroke-opacity:1"
             id="path74" /></g><g
           id="g76"
           transform="translate(353.5144,66.3412)"><path
             d="M 0,0 H 16.192"
             style="fill:none;stroke:#aed2fd;stroke-width:4;stroke-linecap:round;stroke-linejoin:round;stroke-miterlimit:10;stroke-dasharray:none;stroke-opacity:1"
             id="path78" /></g><g
           id="g80"
           transform="translate(393.8086,368.9748)"><path
             d="M 0,0 V -11.132"
             style="fill:none;stroke:#aed2fd;stroke-width:4;stroke-linecap:round;stroke-linejoin:round;stroke-miterlimit:10;stroke-dasharray:none;stroke-opacity:1"
             id="path82" /></g><g
           id="g84"
           transform="translate(388.2427,363.4089)"><path
             d="M 0,0 H 11.132"
             style="fill:none;stroke:#aed2fd;stroke-width:4;stroke-linecap:round;stroke-linejoin:round;stroke-miterlimit:10;stroke-dasharray:none;stroke-opacity:1"
             id="path86" /></g><g
           id="g88"
           transform="translate(98.3424,92.6873)"><path
             d="M 0,0 V -11.132"
             style="fill:none;stroke:#aed2fd;stroke-width:4;stroke-linecap:round;stroke-linejoin:round;stroke-miterlimit:10;stroke-dasharray:none;stroke-opacity:1"
             id="path90" /></g><g
           id="g92"
           transform="translate(92.7763,87.1214)"><path
             d="M 0,0 H 11.132"
             style="fill:none;stroke:#aed2fd;stroke-width:4;stroke-linecap:round;stroke-linejoin:round;stroke-miterlimit:10;stroke-dasharray:none;stroke-opacity:1"
             id="path94" /></g><g
           id="g96"
           transform="translate(62.36,222.0767)"><path
             d="M 0,0 V -11.132"
             style="fill:none;stroke:#aed2fd;stroke-width:4;stroke-linecap:round;stroke-linejoin:round;stroke-miterlimit:10;stroke-dasharray:none;stroke-opacity:1"
             id="path98" /></g><g
           id="g100"
           transform="translate(56.7941,216.5109)"><path
             d="M 0,0 H 11.132"
             style="fill:none;stroke:#aed2fd;stroke-width:4;stroke-linecap:round;stroke-linejoin:round;stroke-miterlimit:10;stroke-dasharray:none;stroke-opacity:1"
             id="path102" /></g><g
           id="g104"
           transform="translate(66.8448,339.8752)"><path
             d="M 0,0 V -11.132"
             style="fill:none;stroke:#aed2fd;stroke-width:4;stroke-linecap:round;stroke-linejoin:round;stroke-miterlimit:10;stroke-dasharray:none;stroke-opacity:1"
             id="path106" /></g><g
           id="g108"
           transform="translate(61.279,334.3093)"><path
             d="M 0,0 H 11.132"
             style="fill:none;stroke:#aed2fd;stroke-width:4;stroke-linecap:round;stroke-linejoin:round;stroke-miterlimit:10;stroke-dasharray:none;stroke-opacity:1"
             id="path110" /></g><g
           id="g112"
           transform="translate(463.9259,272.8801)"><path
             d="M 0,0 V -5.87"
             style="fill:none;stroke:#aed2fd;stroke-width:4;stroke-linecap:round;stroke-linejoin:round;stroke-miterlimit:10;stroke-dasharray:none;stroke-opacity:1"
             id="path114" /></g><g
           id="g116"
           transform="translate(460.9908,269.945)"><path
             d="M 0,0 H 5.87"
             style="fill:none;stroke:#aed2fd;stroke-width:4;stroke-linecap:round;stroke-linejoin:round;stroke-miterlimit:10;stroke-dasharray:none;stroke-opacity:1"
             id="path118" /></g><g
           id="g120"
           transform="translate(437.5138,312.7974)"><path
             d="m 0,0 c 0,-5.59 4.532,-10.122 10.122,-10.122 5.59,0 10.122,4.532 10.122,10.122 0,5.591 -4.532,10.122 -10.122,10.122 C 4.532,10.122 0,5.591 0,0 Z"
             style="fill:none;stroke:#aed2fd;stroke-width:4;stroke-linecap:round;stroke-linejoin:round;stroke-miterlimit:10;stroke-dasharray:none;stroke-opacity:1"
             id="path122" /></g><g
           id="g124"
           transform="translate(39.2461,250.2519)"><path
             d="m 0,0 c 0,-5.59 4.532,-10.122 10.122,-10.122 5.591,0 10.122,4.532 10.122,10.122 0,5.59 -4.531,10.122 -10.122,10.122 C 4.532,10.122 0,5.59 0,0 Z"
             style="fill:none;stroke:#aed2fd;stroke-width:4;stroke-linecap:round;stroke-linejoin:round;stroke-miterlimit:10;stroke-dasharray:none;stroke-opacity:1"
             id="path126" /></g><g
           id="g128"
           transform="translate(88.7763,360.7974)"><path
             d="m 0,0 c 0,-5.59 4.532,-10.122 10.122,-10.122 5.591,0 10.123,4.532 10.123,10.122 0,5.59 -4.532,10.122 -10.123,10.122 C 4.532,10.122 0,5.59 0,0 Z"
             style="fill:none;stroke:#aed2fd;stroke-width:4;stroke-linecap:round;stroke-linejoin:round;stroke-miterlimit:10;stroke-dasharray:none;stroke-opacity:1"
             id="path130" /></g><g
           id="g132"
           transform="translate(380.1677,44.0703)"><path
             d="m 0,0 c 0,-5.591 4.532,-10.122 10.122,-10.122 5.591,0 10.123,4.531 10.123,10.122 0,5.59 -4.532,10.122 -10.123,10.122 C 4.532,10.122 0,5.59 0,0 Z"
             style="fill:none;stroke:#aed2fd;stroke-width:4;stroke-linecap:round;stroke-linejoin:round;stroke-miterlimit:10;stroke-dasharray:none;stroke-opacity:1"
             id="path134" /></g><g
           id="g136"
           transform="translate(120.8302,345.614)"><path
             d="m 0,0 c 0,-2.446 1.983,-4.429 4.429,-4.429 2.445,0 4.428,1.983 4.428,4.429 0,2.446 -1.983,4.429 -4.428,4.429 C 1.983,4.429 0,2.446 0,0 Z"
             style="fill:none;stroke:#aed2fd;stroke-width:4;stroke-linecap:round;stroke-linejoin:round;stroke-miterlimit:10;stroke-dasharray:none;stroke-opacity:1"
             id="path138" /></g><g
           id="g140"
           transform="translate(442.3225,95.8914)"><path
             d="M 0,0 V 9.016"
             style="fill:none;stroke:#aed2fd;stroke-width:4;stroke-linecap:round;stroke-linejoin:round;stroke-miterlimit:10;stroke-dasharray:none;stroke-opacity:1"
             id="path142" /></g><g
           id="g144"
           transform="translate(446.8306,100.3995)"><path
             d="M 0,0 H -9.016"
             style="fill:none;stroke:#aed2fd;stroke-width:4;stroke-linecap:round;stroke-linejoin:round;stroke-miterlimit:10;stroke-dasharray:none;stroke-opacity:1"
             id="path146" /></g><g
           id="g148"
           transform="translate(427.36,242.9287)"><path
             d="M 0,0 V 9.016"
             style="fill:none;stroke:#aed2fd;stroke-width:4;stroke-linecap:round;stroke-linejoin:round;stroke-miterlimit:10;stroke-dasharray:none;stroke-opacity:1"
             id="path150" /></g><g
           id="g152"
           transform="translate(431.8682,247.4368)"><path
             d="M 0,0 H -9.016"
             style="fill:none;stroke:#aed2fd;stroke-width:4;stroke-linecap:round;stroke-linejoin:round;stroke-miterlimit:10;stroke-dasharray:none;stroke-opacity:1"
             id="path154" /></g><g
           id="g156"
           transform="translate(424.5587,78.9451)"><path
             d="m 0,0 c 0,4.528 -3.671,8.199 -8.199,8.199 -4.528,0 -8.198,-3.671 -8.198,-8.199 0,-4.528 3.67,-8.199 8.198,-8.199 C -3.671,-8.199 0,-4.528 0,0 Z"
             style="fill:none;stroke:#aed2fd;stroke-width:4;stroke-linecap:round;stroke-linejoin:round;stroke-miterlimit:10;stroke-dasharray:none;stroke-opacity:1"
             id="path158" /></g><g
           id="g160"
           transform="translate(75.5587,100.9451)"><path
             d="m 0,0 c 0,4.528 -3.671,8.199 -8.199,8.199 -4.528,0 -8.198,-3.671 -8.198,-8.199 0,-4.528 3.67,-8.199 8.198,-8.199 C -3.671,-8.199 0,-4.528 0,0 Z"
             style="fill:none;stroke:#aed2fd;stroke-width:4;stroke-linecap:round;stroke-linejoin:round;stroke-miterlimit:10;stroke-dasharray:none;stroke-opacity:1"
             id="path162" /></g><g
           id="g164"
           transform="translate(394.6772,68.9478)"><path
             d="m 0,0 c 0,1.981 -1.606,3.587 -3.587,3.587 -1.981,0 -3.587,-1.606 -3.587,-3.587 0,-1.981 1.606,-3.587 3.587,-3.587 C -1.606,-3.587 0,-1.981 0,0 Z"
             style="fill:none;stroke:#aed2fd;stroke-width:4;stroke-linecap:round;stroke-linejoin:round;stroke-miterlimit:10;stroke-dasharray:none;stroke-opacity:1"
             id="path166" /></g><g
           id="g168"
           transform="translate(76.36,73.945)"><path
             d="m 0,0 c 0,1.981 -1.606,3.587 -3.587,3.587 -1.981,0 -3.587,-1.606 -3.587,-3.587 0,-1.981 1.606,-3.587 3.587,-3.587 C -1.606,-3.587 0,-1.981 0,0 Z"
             style="fill:none;stroke:#aed2fd;stroke-width:4;stroke-linecap:round;stroke-linejoin:round;stroke-miterlimit:10;stroke-dasharray:none;stroke-opacity:1"
             id="path170" /></g><g
           id="g172"
           transform="translate(143.36,63.945)"><path
             d="m 0,0 c 0,1.981 -1.606,3.587 -3.587,3.587 -1.981,0 -3.587,-1.606 -3.587,-3.587 0,-1.981 1.606,-3.587 3.587,-3.587 C -1.606,-3.587 0,-1.981 0,0 Z"
             style="fill:none;stroke:#aed2fd;stroke-width:4;stroke-linecap:round;stroke-linejoin:round;stroke-miterlimit:10;stroke-dasharray:none;stroke-opacity:1"
             id="path174" /></g><g
           id="g176"
           transform="translate(236.7896,126.1595)"><path
             d="m 0,0 c 0,-1.962 -1.59,-3.552 -3.552,-3.552 h -20.246 c -1.961,0 -3.551,1.59 -3.551,3.552 v 27.705 c 0,1.961 1.59,3.552 3.551,3.552 H -3.552 C -1.59,31.257 0,29.666 0,27.705 Z"
             style="fill:#01007e;fill-opacity:1;fill-rule:nonzero;stroke:none"
             id="path178" /></g></g></g><g
       id="g180"><g
         id="g182"
         clip-path="url(#clipPath186)"><path
           d="M 240.007,141.108 H 205.82 v 1.207 h 34.187 z"
           style="fill:#ffffff;fill-opacity:1;fill-rule:nonzero;stroke:none"
           id="path188" /><path
           d="M 240.007,136.14 H 205.82 v 1.207 h 34.187 z"
           style="fill:#ffffff;fill-opacity:1;fill-rule:nonzero;stroke:none"
           id="path190" /><path
           d="M 240.007,131.172 H 205.82 v 1.207 h 34.187 z"
           style="fill:#ffffff;fill-opacity:1;fill-rule:nonzero;stroke:none"
           id="path192" /><path
           d="M 240.007,126.204 H 205.82 v 1.207 h 34.187 z"
           style="fill:#ffffff;fill-opacity:1;fill-rule:nonzero;stroke:none"
           id="path194" /></g></g><g
       id="g196"><g
         id="g198"
         clip-path="url(#clipPath202)"><g
           id="g204"
           transform="translate(290.5329,126.1595)"><path
             d="m 0,0 c 0,-1.962 -1.59,-3.552 -3.552,-3.552 h -20.246 c -1.961,0 -3.552,1.59 -3.552,3.552 v 27.705 c 0,1.961 1.591,3.552 3.552,3.552 H -3.552 C -1.59,31.257 0,29.666 0,27.705 Z"
             style="fill:#01007e;fill-opacity:1;fill-rule:nonzero;stroke:none"
             id="path206" /></g></g></g><g
       id="g208"><g
         id="g210"
         clip-path="url(#clipPath214)"><path
           d="m 293.75,141.108 h -34.187 v 1.207 h 34.187 z"
           style="fill:#ffffff;fill-opacity:1;fill-rule:nonzero;stroke:none"
           id="path216" /><path
           d="m 293.75,136.14 h -34.187 v 1.207 h 34.187 z"
           style="fill:#ffffff;fill-opacity:1;fill-rule:nonzero;stroke:none"
           id="path218" /><path
           d="m 293.75,131.172 h -34.187 v 1.207 h 34.187 z"
           style="fill:#ffffff;fill-opacity:1;fill-rule:nonzero;stroke:none"
           id="path220" /><path
           d="m 293.75,126.204 h -34.187 v 1.207 h 34.187 z"
           style="fill:#ffffff;fill-opacity:1;fill-rule:nonzero;stroke:none"
           id="path222" /></g></g><g
       id="g224"><g
         id="g226"
         clip-path="url(#clipPath230)"><g
           id="g232"
           transform="translate(163.8034,191.4429)"><path
             d="M 0,0 H 169.949"
             style="fill:none;stroke:#01007e;stroke-width:4.641;stroke-linecap:butt;stroke-linejoin:miter;stroke-miterlimit:10;stroke-dasharray:none;stroke-opacity:1"
             id="path234" /></g><g
           id="g236"
           transform="translate(299.0076,190.9788)"><path
             d="m 0,0 c 0,-4.424 3.587,-8.011 8.011,-8.011 4.425,0 8.011,3.587 8.011,8.011 0,4.424 -3.586,8.011 -8.011,8.011 C 3.587,8.011 0,4.424 0,0"
             style="fill:#01007e;fill-opacity:1;fill-rule:nonzero;stroke:none"
             id="path238" /></g><g
           id="g240"
           transform="translate(344.7877,186.16)"><path
             d="m 0,0 c -2.663,0 -4.821,2.159 -4.821,4.821 0,2.663 2.158,4.822 4.821,4.822 h 8.118 c -2.014,5.961 -7.64,10.259 -14.281,10.259 -8.33,0 -15.083,-6.753 -15.083,-15.083 0,-8.33 6.753,-15.083 15.083,-15.083 6.643,0 12.27,4.3 14.283,10.264 z"
             style="fill:#ff4231;fill-opacity:1;fill-rule:nonzero;stroke:none"
             id="path242" /></g><g
           id="g244"
           transform="translate(184.3811,190.9788)"><path
             d="m 0,0 c 0,-4.424 3.587,-8.011 8.011,-8.011 4.425,0 8.011,3.587 8.011,8.011 0,4.424 -3.586,8.011 -8.011,8.011 C 3.587,8.011 0,4.424 0,0"
             style="fill:#01007e;fill-opacity:1;fill-rule:nonzero;stroke:none"
             id="path246" /></g><g
           id="g248"
           transform="translate(155.0963,195.7976)"><path
             d="M 0,0 C 2.663,0 4.821,-2.159 4.821,-4.821 4.821,-7.484 2.663,-9.643 0,-9.643 h -8.118 c 2.014,-5.961 7.64,-10.259 14.281,-10.259 8.33,0 15.083,6.753 15.083,15.083 0,8.33 -6.753,15.083 -15.083,15.083 C -0.48,10.264 -6.108,5.964 -8.12,0 Z"
             style="fill:#ff4231;fill-opacity:1;fill-rule:nonzero;stroke:none"
             id="path250" /></g><path
           d="m 267.482,219.135 h -34.991 v 16.49 h 34.991 z"
           style="fill:#db2626;fill-opacity:1;fill-rule:nonzero;stroke:none"
           id="path252" /><g
           id="g254"
           transform="translate(206.8961,149.3949)"><path
             d="m 0,0 c -5.719,0 -10.371,4.652 -10.371,10.371 v 48.991 c 0,5.719 4.652,10.371 10.371,10.371 h 86.181 c 5.718,0 10.371,-4.652 10.371,-10.371 V 10.371 C 96.552,4.652 91.899,0 86.181,0 Z"
             style="fill:#ff4231;fill-opacity:1;fill-rule:nonzero;stroke:none"
             id="path256" /></g><g
           id="g258"
           transform="translate(293.0768,223.0612)"><path
             d="m 0,0 h -86.181 c -7.9,0 -14.305,-6.404 -14.305,-14.305 v -48.991 c 0,-7.9 6.405,-14.304 14.305,-14.304 H 0 c 7.9,0 14.305,6.404 14.305,14.304 v 48.991 C 14.305,-6.404 7.9,0 0,0 m 0,-7.868 c 3.549,0 6.437,-2.887 6.437,-6.437 v -48.991 c 0,-3.549 -2.888,-6.437 -6.437,-6.437 h -86.181 c -3.549,0 -6.437,2.888 -6.437,6.437 v 48.991 c 0,3.55 2.888,6.437 6.437,6.437 H 0"
             style="fill:#ff4231;fill-opacity:1;fill-rule:nonzero;stroke:none"
             id="path260" /></g><g
           id="g262"><g
             id="g264" /><g
             id="g274"><g
               clip-path="url(#clipPath268)"
               opacity="0.199997"
               id="g272"><path
                 d="m 226.546,155.588 h 73.602 v 52.286 h -73.602 z"
                 style="fill:#000041;fill-opacity:1;fill-rule:nonzero;stroke:none"
                 id="path270" /></g></g></g><path
           d="m 295.322,161.219 h -69.58 v 48.264 h 69.58 z"
           style="fill:#3d43f6;fill-opacity:1;fill-rule:nonzero;stroke:none"
           id="path276" /></g></g><g
       id="g278"><g
         id="g280"
         clip-path="url(#clipPath284)"><g
           id="g286"
           transform="translate(267.6334,155.2717)"><path
             d="m 0,0 -10.807,-10.807 -61.714,61.714 10.807,10.807 z"
             style="fill:#aed2fd;fill-opacity:1;fill-rule:nonzero;stroke:none"
             id="path288" /></g><g
           id="g290"
           transform="translate(313.484,169.7509)"><path
             d="m 0,0 -18.65,-18.65 -61.714,61.714 18.65,18.65 z"
             style="fill:#aed2fd;fill-opacity:1;fill-rule:nonzero;stroke:none"
             id="path292" /></g><g
           id="g294"
           transform="translate(316.7375,175.0153)"><path
             d="m 0,0 -2.03,-2.03 -61.715,61.714 2.031,2.03 z"
             style="fill:#aed2fd;fill-opacity:1;fill-rule:nonzero;stroke:none"
             id="path296" /></g><g
           id="g298"
           transform="translate(284.1594,153.2966)"><path
             d="m 0,0 -2.03,-2.03 -61.715,61.714 2.031,2.03 z"
             style="fill:#aed2fd;fill-opacity:1;fill-rule:nonzero;stroke:none"
             id="path300" /></g></g></g><g
       id="g302"><path
         d="m 227.753,163.23 h 65.558 v 44.242 h -65.558 z m 69.58,-4.022 h -73.602 v 52.286 h 73.602 z"
         style="fill:#ffffff;fill-opacity:1;fill-rule:nonzero;stroke:none"
         id="path310" /><g
         id="g312"><g
           id="g314" /><g
           id="g326"><g
             clip-path="url(#clipPath318)"
             opacity="0.199997"
             id="g324"><g
               transform="translate(202.9486,201.8403)"
               id="g322"><path
                 d="m 0,0 c 0,-3.751 3.041,-6.792 6.792,-6.792 3.751,0 6.792,3.041 6.792,6.792 0,3.751 -3.041,6.792 -6.792,6.792 C 3.041,6.792 0,3.751 0,0"
                 style="fill:#000041;fill-opacity:1;fill-rule:nonzero;stroke:none"
                 id="path320" /></g></g></g></g><g
         id="g328"
         transform="translate(201.6307,203.1582)"><path
           d="m 0,0 c 0,-3.751 3.041,-6.792 6.792,-6.792 3.751,0 6.792,3.041 6.792,6.792 0,3.751 -3.041,6.792 -6.792,6.792 C 3.041,6.792 0,3.751 0,0"
           style="fill:#63b6ff;fill-opacity:1;fill-rule:nonzero;stroke:none"
           id="path330" /></g><g
         id="g332"><g
           id="g334" /><g
           id="g346"><g
             clip-path="url(#clipPath338)"
             opacity="0.199997"
             id="g344"><g
               transform="translate(202.9486,185.0938)"
               id="g342"><path
                 d="m 0,0 c 0,-3.751 3.041,-6.792 6.792,-6.792 3.751,0 6.792,3.041 6.792,6.792 0,3.751 -3.041,6.792 -6.792,6.792 C 3.041,6.792 0,3.751 0,0"
                 style="fill:#000041;fill-opacity:1;fill-rule:nonzero;stroke:none"
                 id="path340" /></g></g></g></g><g
         id="g348"
         transform="translate(201.6307,186.4117)"><path
           d="m 0,0 c 0,-3.751 3.041,-6.792 6.792,-6.792 3.751,0 6.792,3.041 6.792,6.792 0,3.751 -3.041,6.792 -6.792,6.792 C 3.041,6.792 0,3.751 0,0"
           style="fill:#63b6ff;fill-opacity:1;fill-rule:nonzero;stroke:none"
           id="path350" /></g><g
         id="g352"><g
           id="g354" /><g
           id="g366"><g
             clip-path="url(#clipPath358)"
             opacity="0.199997"
             id="g364"><g
               transform="translate(202.9486,168.3474)"
               id="g362"><path
                 d="m 0,0 c 0,-3.751 3.041,-6.792 6.792,-6.792 3.751,0 6.792,3.041 6.792,6.792 0,3.751 -3.041,6.792 -6.792,6.792 C 3.041,6.792 0,3.751 0,0"
                 style="fill:#000041;fill-opacity:1;fill-rule:nonzero;stroke:none"
                 id="path360" /></g></g></g></g><g
         id="g368"
         transform="translate(201.6307,169.6652)"><path
           d="m 0,0 c 0,-3.751 3.041,-6.792 6.792,-6.792 3.751,0 6.792,3.041 6.792,6.792 0,3.751 -3.041,6.792 -6.792,6.792 C 3.041,6.792 0,3.751 0,0"
           style="fill:#63b6ff;fill-opacity:1;fill-rule:nonzero;stroke:none"
           id="path370" /></g><g
         id="g372"
         transform="translate(168.1394,258.9529)"><path
           d="M 0,0 H 154.444"
           style="fill:none;stroke:#01007e;stroke-width:4.022;stroke-linecap:butt;stroke-linejoin:miter;stroke-miterlimit:10;stroke-dasharray:none;stroke-opacity:1"
           id="path374" /></g><g
         id="g376"
         transform="translate(160.0944,258.5507)"><path
           d="m 0,0 c 0,-7.219 5.853,-13.072 13.072,-13.072 7.219,0 13.072,5.853 13.072,13.072 0,7.219 -5.853,13.072 -13.072,13.072 C 5.853,13.072 0,7.219 0,0"
           style="fill:#ff4231;fill-opacity:1;fill-rule:nonzero;stroke:none"
           id="path378" /></g><g
         id="g380"
         transform="translate(313.7347,258.5507)"><path
           d="m 0,0 c 0,-7.219 5.853,-13.072 13.072,-13.072 7.219,0 13.072,5.853 13.072,13.072 0,7.219 -5.853,13.072 -13.072,13.072 C 5.853,13.072 0,7.219 0,0"
           style="fill:#ff4231;fill-opacity:1;fill-rule:nonzero;stroke:none"
           id="path382" /></g><g
         id="g384"
         transform="translate(206.8961,233.4315)"><path
           d="m 0,0 c -5.719,0 -10.371,4.653 -10.371,10.372 v 32.54 c 0,5.718 4.652,10.371 10.371,10.371 h 86.181 c 5.718,0 10.371,-4.653 10.371,-10.371 V 10.372 C 96.552,4.653 91.899,0 86.181,0 Z"
           style="fill:#ffffff;fill-opacity:1;fill-rule:nonzero;stroke:none"
           id="path386" /></g><g
         id="g388"
         transform="translate(293.0768,290.6481)"><path
           d="m 0,0 h -86.181 c -7.9,0 -14.305,-6.404 -14.305,-14.305 v -32.54 c 0,-7.9 6.405,-14.305 14.305,-14.305 H 0 c 7.9,0 14.305,6.405 14.305,14.305 v 32.54 C 14.305,-6.404 7.9,0 0,0 m 0,-7.868 c 3.549,0 6.437,-2.887 6.437,-6.437 v -32.54 c 0,-3.55 -2.888,-6.437 -6.437,-6.437 h -86.181 c -3.549,0 -6.437,2.887 -6.437,6.437 v 32.54 c 0,3.55 2.888,6.437 6.437,6.437 H 0"
           style="fill:#ff4231;fill-opacity:1;fill-rule:nonzero;stroke:none"
           id="path390" /></g><g
         id="g392"><g
           id="g394" /><g
           id="g406"><g
             clip-path="url(#clipPath398)"
             opacity="0.199997"
             id="g404"><g
               transform="translate(208.2584,258.5507)"
               id="g402"><path
                 d="m 0,0 c 0,-7.441 6.032,-13.474 13.474,-13.474 7.441,0 13.473,6.033 13.473,13.474 0,7.441 -6.032,13.474 -13.473,13.474 C 6.032,13.474 0,7.441 0,0"
                 style="fill:#000041;fill-opacity:1;fill-rule:nonzero;stroke:none"
                 id="path400" /></g></g></g></g><g
         id="g408"
         transform="translate(205.6441,261.165)"><path
           d="m 0,0 c 0,-7.441 6.032,-13.474 13.474,-13.474 7.441,0 13.473,6.033 13.473,13.474 0,7.441 -6.032,13.474 -13.473,13.474 C 6.032,13.474 0,7.441 0,0"
           style="fill:#01007e;fill-opacity:1;fill-rule:nonzero;stroke:none"
           id="path410" /></g><g
         id="g412"><g
           id="g414" /><g
           id="g426"><g
             clip-path="url(#clipPath418)"
             opacity="0.199997"
             id="g424"><g
               transform="translate(267.3816,258.5507)"
               id="g422"><path
                 d="m 0,0 c 0,-7.441 6.032,-13.474 13.474,-13.474 7.441,0 13.473,6.033 13.473,13.474 0,7.441 -6.032,13.474 -13.473,13.474 C 6.032,13.474 0,7.441 0,0"
                 style="fill:#000041;fill-opacity:1;fill-rule:nonzero;stroke:none"
                 id="path420" /></g></g></g></g><g
         id="g428"
         transform="translate(264.7673,261.165)"><path
           d="m 0,0 c 0,-7.441 6.032,-13.474 13.474,-13.474 7.441,0 13.473,6.033 13.473,13.474 0,7.441 -6.032,13.474 -13.473,13.474 C 6.032,13.474 0,7.441 0,0"
           style="fill:#01007e;fill-opacity:1;fill-rule:nonzero;stroke:none"
           id="path430" /></g><g
         id="g432"
         transform="translate(260.6447,255.7353)"><path
           d="m 0,0 c 0,-2.888 -2.341,-5.229 -5.229,-5.229 h -10.859 c -2.888,0 -5.229,2.341 -5.229,5.229 0,2.888 2.341,5.229 5.229,5.229 H -5.229 C -2.341,5.229 0,2.888 0,0"
           style="fill:#63b6ff;fill-opacity:1;fill-rule:nonzero;stroke:none"
           id="path434" /></g><g
         id="g436"><g
           id="g438" /><g
           id="g450"><g
             clip-path="url(#clipPath442)"
             opacity="0.199997"
             id="g448"><g
               transform="translate(77.1346,281.0066)"
               id="g446"><path
                 d="M 0,0 C 0,19.809 16.059,35.868 35.868,35.868 55.678,35.868 71.736,19.809 71.736,0 71.736,-19.809 55.678,-35.868 35.868,-35.868 16.059,-35.868 0,-19.809 0,0"
                 style="fill:#000041;fill-opacity:1;fill-rule:nonzero;stroke:none"
                 id="path444" /></g></g></g></g><g
         id="g452"
         transform="translate(74.8887,288.2555)"><path
           d="M 0,0 C 0,19.809 16.059,35.868 35.868,35.868 55.678,35.868 71.736,19.809 71.736,0 71.736,-19.809 55.678,-35.868 35.868,-35.868 16.059,-35.868 0,-19.809 0,0"
           style="fill:#ff4231;fill-opacity:1;fill-rule:nonzero;stroke:none"
           id="path454" /></g><g
         id="g456"
         transform="translate(108.9943,264.9328)"><path
           d="m 0,0 c -1.942,0 -3.812,0.71 -5.266,2 l -0.51,0.455 c -3.273,2.904 -3.573,7.931 -0.669,11.204 L 9.578,31.712 c 1.505,1.697 3.67,2.669 5.939,2.669 1.941,0 3.812,-0.71 5.266,-2 l 0.51,-0.454 c 1.586,-1.407 2.529,-3.348 2.655,-5.464 0.126,-2.116 -0.58,-4.155 -1.987,-5.741 L 5.939,2.669 C 4.434,0.973 2.269,0 0,0"
           style="fill:#ffffff;fill-opacity:1;fill-rule:nonzero;stroke:none"
           id="path458" /></g><g
         id="g460"
         transform="translate(124.5109,300.4195)"><path
           d="m 0,0 v 0 c -2.585,0 -5.051,-1.108 -6.766,-3.04 l -16.022,-18.054 c -1.603,-1.806 -2.407,-4.129 -2.263,-6.54 0.144,-2.411 1.218,-4.622 3.024,-6.225 l 0.511,-0.454 c 1.656,-1.47 3.787,-2.279 6,-2.279 2.585,0 5.051,1.108 6.765,3.04 l 16.023,18.054 c 1.603,1.806 2.407,4.129 2.263,6.54 -0.144,2.411 -1.218,4.622 -3.024,6.225 L 6,-2.279 C 4.343,-0.809 2.213,0 0,0 m 0,-2.211 c 1.612,0 3.231,-0.568 4.532,-1.722 l 0.511,-0.454 c 2.822,-2.504 3.079,-6.822 0.575,-9.644 l -16.022,-18.053 c -1.35,-1.521 -3.227,-2.297 -5.112,-2.297 -1.613,0 -3.231,0.568 -4.532,1.722 l -0.511,0.453 c -2.822,2.505 -3.079,6.823 -0.575,9.645 l 16.022,18.053 c 1.35,1.521 3.227,2.297 5.112,2.297"
           style="fill:#ff4231;fill-opacity:1;fill-rule:nonzero;stroke:none"
           id="path462" /></g><g
         id="g464"
         transform="translate(90.2638,263.3547)"><path
           d="m 0,0 0.006,1.111 c 0.053,10.157 8.358,18.42 18.513,18.42 10.155,0 18.46,-8.263 18.513,-18.42 L 37.038,0 Z"
           style="fill:#ffffff;fill-opacity:1;fill-rule:nonzero;stroke:none"
           id="path466" /></g><g
         id="g468"
         transform="translate(108.7829,283.9913)"><path
           d="m 0,0 c -10.761,0 -19.562,-8.756 -19.619,-19.519 l -0.011,-2.223 h 2.222 34.816 2.222 l -0.011,2.223 C 19.562,-8.756 10.761,0 0,0 m 0,-2.211 c 9.585,0 17.357,-7.747 17.408,-17.32 h -34.816 c 0.051,9.573 7.823,17.32 17.408,17.32"
           style="fill:#ff4231;fill-opacity:1;fill-rule:nonzero;stroke:none"
           id="path470" /></g><g
         id="g472"
         transform="translate(126.2326,285.5529)"><path
           d="m 0,0 c -1.451,0 -2.818,0.563 -3.848,1.585 l -7.683,7.621 c -1.215,-0.392 -2.478,-0.59 -3.765,-0.59 -3.479,0 -6.803,1.485 -9.119,4.072 -3.388,3.787 -4.074,9.359 -1.707,13.866 l 0.699,1.329 6.82,-6.82 c 0.416,-0.416 0.969,-0.645 1.558,-0.645 0.588,0 1.141,0.229 1.557,0.645 0.416,0.416 0.645,0.969 0.645,1.558 0,0.588 -0.229,1.141 -0.645,1.557 l -6.819,6.82 1.328,0.699 c 1.75,0.92 3.724,1.407 5.708,1.407 3.478,0 6.801,-1.485 9.118,-4.074 2.867,-3.203 3.831,-7.636 2.593,-11.723 L 4.155,9.654 C 5.192,8.626 5.766,7.256 5.772,5.797 5.778,4.337 5.215,2.962 4.187,1.926 L 3.881,1.617 C 2.846,0.574 1.468,0 0,0 Z"
           style="fill:#ffffff;fill-opacity:1;fill-rule:nonzero;stroke:none"
           id="path474" /></g><g
         id="g476"
         transform="translate(110.9618,319.7621)"><path
           d="m 0,0 c -2.163,0 -4.315,-0.531 -6.223,-1.534 l -2.656,-1.398 2.122,-2.123 5.758,-5.758 c 0.28,-0.279 0.322,-0.606 0.322,-0.776 0,-0.169 -0.042,-0.496 -0.322,-0.775 -0.279,-0.28 -0.606,-0.322 -0.775,-0.322 -0.17,0 -0.497,0.042 -0.777,0.322 l -5.758,5.758 -2.124,2.124 -1.397,-2.659 c -2.58,-4.914 -1.832,-10.989 1.862,-15.117 2.525,-2.822 6.149,-4.441 9.942,-4.441 1.173,0 2.329,0.151 3.45,0.451 l 7.22,-7.161 c 1.239,-1.229 2.882,-1.906 4.627,-1.906 1.765,0 3.422,0.691 4.665,1.944 l 0.306,0.309 c 1.236,1.246 1.913,2.899 1.906,4.654 -0.007,1.755 -0.697,3.402 -1.943,4.638 l -7.257,7.197 c 1.064,4.27 -0.032,8.807 -3.006,12.131 C 7.416,-1.619 3.792,0 0,0 m 0,-2.211 c 3.055,0 6.096,-1.249 8.294,-3.705 2.846,-3.181 3.527,-7.543 2.15,-11.288 l 8.203,-8.136 c 1.71,-1.695 1.721,-4.455 0.026,-6.165 l -0.307,-0.309 c -0.853,-0.859 -1.974,-1.29 -3.095,-1.29 -1.11,0 -2.22,0.422 -3.07,1.265 l -8.176,8.11 c -1.304,-0.507 -2.679,-0.759 -4.051,-0.759 -3.055,0 -6.096,1.248 -8.294,3.705 -3.191,3.566 -3.654,8.612 -1.552,12.614 l 5.758,-5.759 c 0.646,-0.646 1.493,-0.969 2.34,-0.969 0.846,0 1.693,0.323 2.339,0.969 1.292,1.292 1.292,3.387 0,4.679 l -5.758,5.758 c 1.627,0.856 3.412,1.28 5.193,1.28"
           style="fill:#ff4231;fill-opacity:1;fill-rule:nonzero;stroke:none"
           id="path478" /></g><g
         id="g480"
         transform="translate(124.3986,291.0391)"><path
           d="m 0,0 c 0,-1.069 0.866,-1.935 1.935,-1.935 1.068,0 1.934,0.866 1.934,1.935 0,1.069 -0.866,1.935 -1.934,1.935 C 0.866,1.935 0,1.069 0,0"
           style="fill:#ff4231;fill-opacity:1;fill-rule:nonzero;stroke:none"
           id="path482" /></g><g
         id="g484"><g
           id="g486" /><g
           id="g498"><g
             clip-path="url(#clipPath490)"
             opacity="0.199997"
             id="g496"><g
               transform="translate(354.1007,281.0066)"
               id="g494"><path
                 d="M 0,0 C 0,19.809 16.059,35.868 35.868,35.868 55.678,35.868 71.736,19.809 71.736,0 71.736,-19.809 55.678,-35.868 35.868,-35.868 16.059,-35.868 0,-19.809 0,0"
                 style="fill:#000041;fill-opacity:1;fill-rule:nonzero;stroke:none"
                 id="path492" /></g></g></g></g><g
         id="g500"
         transform="translate(351.8549,288.2555)"><path
           d="M 0,0 C 0,19.809 16.059,35.868 35.868,35.868 55.678,35.868 71.736,19.809 71.736,0 71.736,-19.809 55.678,-35.868 35.868,-35.868 16.059,-35.868 0,-19.809 0,0"
           style="fill:#ff4231;fill-opacity:1;fill-rule:nonzero;stroke:none"
           id="path502" /></g><path
         d="m 406.638,295.116 h -23.085 v 8.245 h 23.085 z"
         style="fill:#ffffff;fill-opacity:1;fill-rule:nonzero;stroke:none"
         id="path504" /><g
         id="g506"
         transform="translate(386.3005,290.0358)"><path
           d="M 0,0 -15.94,9.203 0,18.406 Z"
           style="fill:#ffffff;fill-opacity:1;fill-rule:nonzero;stroke:none"
           id="path508" /></g><path
         d="m 370.361,283.021 h 23.085 v -8.245 h -23.085 z"
         style="fill:#ffffff;fill-opacity:1;fill-rule:nonzero;stroke:none"
         id="path510" /><g
         id="g512"
         transform="translate(390.6977,288.1017)"><path
           d="M 0,0 15.94,-9.203 0,-18.406 Z"
           style="fill:#ffffff;fill-opacity:1;fill-rule:nonzero;stroke:none"
           id="path514" /></g><g
         id="g516"><g
           id="g518" /><g
           id="g530"><g
             clip-path="url(#clipPath522)"
             opacity="0.199997"
             id="g528"><g
               transform="translate(216.3641,50.0719)"
               id="g526"><path
                 d="M 0,0 C 0,19.809 16.059,35.868 35.868,35.868 55.678,35.868 71.736,19.809 71.736,0 71.736,-19.809 55.678,-35.868 35.868,-35.868 16.059,-35.868 0,-19.809 0,0"
                 style="fill:#000041;fill-opacity:1;fill-rule:nonzero;stroke:none"
                 id="path524" /></g></g></g></g><g
         id="g532"
         transform="translate(214.1183,57.3209)"><path
           d="M 0,0 C 0,19.809 16.059,35.868 35.868,35.868 55.678,35.868 71.736,19.809 71.736,0 71.736,-19.809 55.678,-35.868 35.868,-35.868 16.059,-35.868 0,-19.809 0,0"
           style="fill:#ff4231;fill-opacity:1;fill-rule:nonzero;stroke:none"
           id="path534" /></g><g
         id="g536"
         transform="translate(238.509,57.4578)"><path
           d="m 0,0 c 0,6.541 5.321,11.862 11.861,11.862 6.541,0 11.862,-5.321 11.862,-11.862 0,-6.541 -5.321,-11.862 -11.862,-11.862 C 5.321,-11.862 0,-6.541 0,0 m 35.354,-0.446 c 0.003,0.148 0.004,0.297 0.004,0.446 0,1.6 -0.163,3.201 -0.483,4.758 L 31.313,4.025 C 31.01,5.492 30.54,6.898 29.932,8.228 l 3.317,1.513 c -0.724,1.587 -1.628,3.096 -2.687,4.487 l -2.901,-2.209 c -0.896,1.175 -1.919,2.247 -3.05,3.196 l 2.343,2.793 c -1.339,1.124 -2.804,2.098 -4.354,2.895 l -1.668,-3.242 c -1.301,0.671 -2.683,1.207 -4.131,1.579 l 0.901,3.523 c -1.687,0.432 -3.429,0.676 -5.178,0.724 l -0.101,-3.639 c -0.187,0.005 -0.373,0.015 -0.562,0.015 -1.314,0 -2.597,-0.132 -3.841,-0.377 l -0.7,3.571 C 5.602,22.72 3.92,22.188 2.322,21.478 l 1.481,-3.33 C 2.446,17.543 1.165,16.794 -0.012,15.914 l -2.179,2.918 C -3.588,17.788 -4.872,16.587 -6.005,15.261 L -3.232,12.89 C -4.188,11.772 -5.022,10.548 -5.714,9.237 L -8.94,10.935 C -9.755,9.386 -10.397,7.744 -10.846,6.055 L -7.329,5.119 C -7.703,3.716 -7.926,2.253 -7.982,0.748 l -3.637,0.133 C -11.629,0.589 -11.635,0.296 -11.635,0 c 0,-1.751 0.194,-3.498 0.577,-5.193 l 3.552,0.802 c 0.331,-1.459 0.818,-2.86 1.451,-4.179 l -3.283,-1.573 c 0.754,-1.572 1.686,-3.065 2.772,-4.436 l 2.86,2.265 c 0.918,-1.158 1.959,-2.211 3.108,-3.139 l -2.29,-2.837 c 1.36,-1.098 2.843,-2.044 4.408,-2.812 l 1.604,3.269 c 1.313,-0.645 2.708,-1.148 4.164,-1.492 l -0.836,-3.544 c 1.693,-0.399 3.438,-0.61 5.189,-0.626 l 0.033,3.637 c 0.063,0 0.125,-0.005 0.187,-0.005 1.444,0 2.851,0.159 4.209,0.453 l 0.767,-3.557 c 1.711,0.369 3.382,0.932 4.967,1.673 l -1.543,3.301 c 1.345,0.63 2.607,1.407 3.768,2.31 l 2.237,-2.881 c 1.378,1.07 2.637,2.295 3.746,3.642 l -2.814,2.315 c 0.935,1.135 1.743,2.378 2.41,3.703 l 3.257,-1.637 c 0.786,1.564 1.397,3.219 1.814,4.917 l -3.535,0.868 c 0.347,1.408 0.542,2.873 0.57,4.38 z"
           style="fill:#ffffff;fill-opacity:1;fill-rule:nonzero;stroke:none"
           id="path538" /></g></g></g></svg>
