<?xml version="1.0" encoding="UTF-8" standalone="no"?>
<svg
   xmlns:dc="http://purl.org/dc/elements/1.1/"
   xmlns:cc="http://creativecommons.org/ns#"
   xmlns:rdf="http://www.w3.org/1999/02/22-rdf-syntax-ns#"
   xmlns:svg="http://www.w3.org/2000/svg"
   xmlns="http://www.w3.org/2000/svg"
   xmlns:sodipodi="http://sodipodi.sourceforge.net/DTD/sodipodi-0.dtd"
   xmlns:inkscape="http://www.inkscape.org/namespaces/inkscape"
   width="140.52336mm"
   height="41.090656mm"
   viewBox="0 0 140.52336 41.090657"
   version="1.1"
   id="svg8"
   inkscape:version="1.0.2 (e86c870, 2021-01-15)"
   sodipodi:docname="logo1.svg">
  <defs
     id="defs2">
    <clipPath
       clipPathUnits="userSpaceOnUse"
       id="clipPath26">
      <path
         d="M 0,500 H 500 V 0 H 0 Z"
         id="path24" />
    </clipPath>
    <clipPath
       clipPathUnits="userSpaceOnUse"
       id="clipPath34">
      <path
         d="M 44.8213,471.356 H 479.072 V 66.8631 H 44.8213 Z"
         id="path32" />
    </clipPath>
    <clipPath
       clipPathUnits="userSpaceOnUse"
       id="clipPath38">
      <path
         d="M 44.8213,444 H 479.072 V 66.8631 H 44.8213 Z"
         id="path36" />
    </clipPath>
    <clipPath
       clipPathUnits="userSpaceOnUse"
       id="clipPath42">
      <path
         d="m 203.865,469.684 h 26.586 v -26.586 h -26.586 z"
         id="path40" />
    </clipPath>
    <clipPath
       clipPathUnits="userSpaceOnUse"
       id="clipPath46">
      <path
         d="M 389.923,471.356 H 403.64 V 457.639 H 389.923 Z"
         id="path44" />
    </clipPath>
    <clipPath
       clipPathUnits="userSpaceOnUse"
       id="clipPath50">
      <path
         d="M 145.468,435.823 H 163.85 V 417.442 H 145.468 Z"
         id="path48" />
    </clipPath>
    <clipPath
       clipPathUnits="userSpaceOnUse"
       id="clipPath110">
      <path
         d="M 20.1235,453.67 H 476.129 V 53.4958 H 20.1235 Z"
         id="path108" />
    </clipPath>
    <clipPath
       clipPathUnits="userSpaceOnUse"
       id="clipPath114">
      <path
         d="M 20.1235,453.67 H 74.0916 V 403.764 H 20.1235 Z"
         id="path112" />
    </clipPath>
    <clipPath
       clipPathUnits="userSpaceOnUse"
       id="clipPath118">
      <path
         d="M 43.7525,100.001 H 88.473 V 53.4958 H 43.7525 Z"
         id="path116" />
    </clipPath>
    <clipPath
       clipPathUnits="userSpaceOnUse"
       id="clipPath122">
      <path
         d="M 33.4164,443.074 H 476.129 V 114.815 H 33.4164 Z"
         id="path120" />
    </clipPath>
    <clipPath
       clipPathUnits="userSpaceOnUse"
       id="clipPath126">
      <path
         d="M 52.1839,424.663 H 455.953 V 78.8895 H 52.1839 Z"
         id="path124" />
    </clipPath>
    <clipPath
       clipPathUnits="userSpaceOnUse"
       id="clipPath186">
      <path
         d="m 463.151,115.921 h 9 v -9 h -9 z"
         id="path184" />
    </clipPath>
    <clipPath
       clipPathUnits="userSpaceOnUse"
       id="clipPath202">
      <path
         d="m 314.316,471.356 h 9.501 v -9.501 h -9.501 z"
         id="path200" />
    </clipPath>
    <clipPath
       clipPathUnits="userSpaceOnUse"
       id="clipPath218">
      <path
         d="m 101.015,63.4221 h 9 v -9 h -9 z"
         id="path216" />
    </clipPath>
    <clipPath
       clipPathUnits="userSpaceOnUse"
       id="clipPath234">
      <path
         d="m 377.738,61.4989 h 7 v -7 h -7 z"
         id="path232" />
    </clipPath>
    <clipPath
       clipPathUnits="userSpaceOnUse"
       id="clipPath250">
      <path
         d="m 95.2399,439.323 h 7.0001 v -7 h -7.0001 z"
         id="path248" />
    </clipPath>
    <clipPath
       clipPathUnits="userSpaceOnUse"
       id="clipPath266">
      <path
         d="m 69.3112,398.731 h 3 v -3 h -3 z"
         id="path264" />
    </clipPath>
    <clipPath
       clipPathUnits="userSpaceOnUse"
       id="clipPath282">
      <path
         d="m 132.278,471.804 h 4.239 v -4.239 h -4.239 z"
         id="path280" />
    </clipPath>
    <clipPath
       clipPathUnits="userSpaceOnUse"
       id="clipPath298">
      <path
         d="m 474.01,276.644 h 4.239 v -4.239 h -4.239 z"
         id="path296" />
    </clipPath>
    <clipPath
       clipPathUnits="userSpaceOnUse"
       id="clipPath314">
      <path
         d="m 454.19,405.298 h 3.603 v -3.604 h -3.603 z"
         id="path312" />
    </clipPath>
    <clipPath
       clipPathUnits="userSpaceOnUse"
       id="clipPath330">
      <path
         d="m 424.828,457.465 h 13.724 V 443.74 h -13.724 z"
         id="path328" />
    </clipPath>
    <clipPath
       clipPathUnits="userSpaceOnUse"
       id="clipPath346">
      <path
         d="M 19.1465,244.94 H 30.1188 V 233.967 H 19.1465 Z"
         id="path344" />
    </clipPath>
    <clipPath
       clipPathUnits="userSpaceOnUse"
       id="clipPath362">
      <path
         d="M 126.932,376.32 H 376.943 V 122.18 H 126.932 Z"
         id="path360" />
    </clipPath>
    <clipPath
       clipPathUnits="userSpaceOnUse"
       id="clipPath366">
      <path
         d="M 127.714,376.32 H 376.943 V 127.091 H 127.714 Z"
         id="path364" />
    </clipPath>
    <clipPath
       clipPathUnits="userSpaceOnUse"
       id="clipPath370">
      <path
         d="M 127.714,376.32 H 376.943 V 127.091 H 127.714 Z"
         id="path368" />
    </clipPath>
    <clipPath
       clipPathUnits="userSpaceOnUse"
       id="clipPath374">
      <path
         d="m 322.413,364.253 h 52.558 v -52.558 h -52.558 z"
         id="path372" />
    </clipPath>
    <clipPath
       clipPathUnits="userSpaceOnUse"
       id="clipPath378">
      <path
         d="m 126.932,206.401 h 62.654 v -78.256 h -62.654 z"
         id="path376" />
    </clipPath>
    <clipPath
       clipPathUnits="userSpaceOnUse"
       id="clipPath446">
      <path
         d="M 0,500 H 500 V 0 H 0 Z"
         id="path444" />
    </clipPath>
    <clipPath
       clipPathUnits="userSpaceOnUse"
       id="clipPath774">
      <path
         d="M 136.696,440.267 H 257.154 V 406.762 H 136.696 Z"
         id="path772" />
    </clipPath>
    <clipPath
       clipPathUnits="userSpaceOnUse"
       id="clipPath978">
      <path
         d="M 192.829,332.414 H 352.735 V 170.971 H 192.829 Z"
         id="path976" />
    </clipPath>
    <clipPath
       clipPathUnits="userSpaceOnUse"
       id="clipPath1102">
      <path
         d="M 0,500 H 500 V 0 H 0 Z"
         id="path1100" />
    </clipPath>
  </defs>
  <sodipodi:namedview
     id="base"
     pagecolor="#ffffff"
     bordercolor="#666666"
     borderopacity="1.0"
     inkscape:pageopacity="0.0"
     inkscape:pageshadow="2"
     inkscape:zoom="2.0042164"
     inkscape:cx="239.28238"
     inkscape:cy="99.243027"
     inkscape:document-units="mm"
     inkscape:current-layer="layer1"
     inkscape:document-rotation="0"
     showgrid="false"
     inkscape:window-width="2560"
     inkscape:window-height="1346"
     inkscape:window-x="-11"
     inkscape:window-y="-11"
     inkscape:window-maximized="1"
     fit-margin-top="5"
     fit-margin-left="5"
     fit-margin-right="5"
     fit-margin-bottom="5"
     scale-x="1"
     lock-margins="true"
     inkscape:pagecheckerboard="true"
     showguides="false">
    <inkscape:grid
       type="xygrid"
       id="grid6301"
       originx="-10.959053"
       originy="-57.000407" />
    <sodipodi:guide
       position="-156.61886,-72.055804"
       orientation="1,0"
       id="guide897" />
  </sodipodi:namedview>
  <metadata
     id="metadata5">
    <rdf:RDF>
      <cc:Work
         rdf:about="">
        <dc:format>image/svg+xml</dc:format>
        <dc:type
           rdf:resource="http://purl.org/dc/dcmitype/StillImage" />
        <dc:title />
      </cc:Work>
    </rdf:RDF>
  </metadata>
  <g
     inkscape:label="图层 1"
     inkscape:groupmode="layer"
     id="layer1"
     transform="translate(-10.959066,-57.000393)">
    <g
       aria-label="Unleash the Force"
       id="text6299"
       style="font-style:normal;font-variant:normal;font-weight:normal;font-stretch:normal;font-size:11.2889px;line-height:1.25;font-family:Montserrat;-inkscape-font-specification:Montserrat;fill:#1c2a44;fill-opacity:1;stroke:none;stroke-width:0.264583">
      <path
         d="m 48.946597,93.091049 c 2.020713,0 3.239914,-1.174046 3.239914,-3.443115 v -4.526849 h -0.8128 v 4.492983 c 0,1.873957 -0.880535,2.731913 -2.427114,2.731913 -1.53529,0 -2.415825,-0.857956 -2.415825,-2.731913 v -4.492983 h -0.835378 v 4.526849 c 0,2.269069 1.23049,3.443115 3.251203,3.443115 z"
         style="font-style:normal;font-variant:normal;font-weight:normal;font-stretch:normal;font-size:11.2889px;font-family:Montserrat;-inkscape-font-specification:Montserrat;fill:#ff0024;fill-opacity:1;stroke-width:0.264583"
         id="path917" />
      <path
         d="m 57.560026,87.040198 c -1.02729,0 -1.828802,0.41769 -2.25778,1.140179 v -1.095023 h -0.767645 v 5.937961 h 0.801512 v -3.115736 c 0,-1.354668 0.801512,-2.144891 2.077158,-2.144891 1.12889,0 1.783646,0.643467 1.783646,1.896535 v 3.364092 h 0.801512 v -3.443114 c 0,-1.704624 -0.993423,-2.540003 -2.438403,-2.540003 z"
         style="font-style:normal;font-variant:normal;font-weight:normal;font-stretch:normal;font-size:11.2889px;font-family:Montserrat;-inkscape-font-specification:Montserrat;fill:#ff0024;fill-opacity:1;stroke-width:0.264583"
         id="path919" />
      <path
         d="m 62.177166,93.023315 h 0.801512 v -8.376364 h -0.801512 z"
         style="font-style:normal;font-variant:normal;font-weight:normal;font-stretch:normal;font-size:11.2889px;font-family:Montserrat;-inkscape-font-specification:Montserrat;fill:#ff0024;fill-opacity:1;stroke-width:0.264583"
         id="path921" />
      <path
         d="m 70.395474,90.054335 c 0,-1.783647 -1.207912,-3.014137 -2.878669,-3.014137 -1.670758,0 -2.901248,1.253068 -2.901248,3.014137 0,1.761068 1.264357,3.025425 3.115737,3.025425 0.936978,0 1.761068,-0.338667 2.291646,-0.970846 l -0.451556,-0.519289 c -0.451556,0.519289 -1.095023,0.778934 -1.817513,0.778934 -1.298223,0 -2.246491,-0.82409 -2.336802,-2.065869 h 4.967116 c 0,-0.09031 0.01129,-0.180622 0.01129,-0.248355 z m -2.878669,-2.325514 c 1.162756,0 2.009424,0.812801 2.111024,1.975558 h -4.21076 c 0.1016,-1.162757 0.948268,-1.975558 2.099736,-1.975558 z"
         style="font-style:normal;font-variant:normal;font-weight:normal;font-stretch:normal;font-size:11.2889px;font-family:Montserrat;-inkscape-font-specification:Montserrat;fill:#ff0024;fill-opacity:1;stroke-width:0.264583"
         id="path923" />
      <path
         d="m 73.940154,87.040198 c -0.936978,0 -1.817512,0.293512 -2.415824,0.801512 l 0.361245,0.598312 c 0.485422,-0.428978 1.207912,-0.699912 1.975557,-0.699912 1.106312,0 1.682046,0.553156 1.682046,1.569157 v 0.361245 h -1.885246 c -1.704624,0 -2.291647,0.767645 -2.291647,1.682046 0,1.02729 0.82409,1.727202 2.167469,1.727202 0.982134,0 1.682046,-0.372534 2.043291,-0.982134 v 0.925689 h 0.767645 v -3.680181 c 0,-1.535291 -0.869245,-2.302936 -2.404536,-2.302936 z m -0.282222,5.407384 c -0.948268,0 -1.501424,-0.428979 -1.501424,-1.117602 0,-0.6096 0.372534,-1.061156 1.524002,-1.061156 h 1.862668 v 0.970845 c -0.316089,0.778934 -0.982134,1.207913 -1.885246,1.207913 z"
         style="font-style:normal;font-variant:normal;font-weight:normal;font-stretch:normal;font-size:11.2889px;font-family:Montserrat;-inkscape-font-specification:Montserrat;fill:#ff0024;fill-opacity:1;stroke-width:0.264583"
         id="path925" />
      <path
         d="m 80.115163,93.07976 c 1.546579,0 2.449691,-0.666045 2.449691,-1.693335 0,-2.280358 -3.849515,-1.072446 -3.849515,-2.67547 0,-0.564445 0.474134,-0.982134 1.546579,-0.982134 0.609601,0 1.230491,0.146756 1.74978,0.508001 l 0.349956,-0.643468 c -0.496712,-0.338667 -1.33209,-0.553156 -2.099736,-0.553156 -1.512712,0 -2.348091,0.72249 -2.348091,1.693335 0,2.348092 3.849515,1.12889 3.849515,2.67547 0,0.587022 -0.462845,0.970845 -1.591735,0.970845 -0.835378,0 -1.63689,-0.293511 -2.111024,-0.666045 l -0.361245,0.632178 c 0.485423,0.41769 1.43369,0.733779 2.415825,0.733779 z"
         style="font-style:normal;font-variant:normal;font-weight:normal;font-stretch:normal;font-size:11.2889px;font-family:Montserrat;-inkscape-font-specification:Montserrat;fill:#ff0024;fill-opacity:1;stroke-width:0.264583"
         id="path927" />
      <path
         d="m 87.069109,87.040198 c -1.004712,0 -1.783646,0.395112 -2.223913,1.083735 v -3.476982 h -0.801512 v 8.376364 h 0.801512 v -3.115736 c 0,-1.354668 0.801512,-2.144891 2.077157,-2.144891 1.12889,0 1.783647,0.643467 1.783647,1.896535 v 3.364092 h 0.801512 v -3.443114 c 0,-1.704624 -0.993424,-2.540003 -2.438403,-2.540003 z"
         style="font-style:normal;font-variant:normal;font-weight:normal;font-stretch:normal;font-size:11.2889px;font-family:Montserrat;-inkscape-font-specification:Montserrat;fill:#ff0024;fill-opacity:1;stroke-width:0.264583"
         id="path929" />
      <path
         d="m 97.488733,92.086337 c -0.225778,0.2032 -0.553156,0.3048 -0.880534,0.3048 -0.666045,0 -1.02729,-0.383823 -1.02729,-1.083734 v -3.544715 h 1.806224 V 87.085354 H 95.580909 V 85.78713 h -0.801512 v 1.298224 H 93.71824 v 0.677334 h 1.061157 v 3.58987 c 0,1.095024 0.62089,1.727202 1.738491,1.727202 0.462845,0 0.936978,-0.135467 1.253068,-0.417689 z"
         style="font-style:normal;font-variant:normal;font-weight:normal;font-stretch:normal;font-size:11.2889px;font-family:Montserrat;-inkscape-font-specification:Montserrat;fill:#ff0024;fill-opacity:1;stroke-width:0.264583"
         id="path931" />
      <path
         d="m 102.25263,87.040198 c -1.00472,0 -1.78365,0.395112 -2.22392,1.083735 v -3.476982 h -0.801509 v 8.376364 h 0.801509 v -3.115736 c 0,-1.354668 0.80152,-2.144891 2.07716,-2.144891 1.12889,0 1.78365,0.643467 1.78365,1.896535 v 3.364092 h 0.80151 v -3.443114 c 0,-1.704624 -0.99342,-2.540003 -2.4384,-2.540003 z"
         style="font-style:normal;font-variant:normal;font-weight:normal;font-stretch:normal;font-size:11.2889px;font-family:Montserrat;-inkscape-font-specification:Montserrat;fill:#ff0024;fill-opacity:1;stroke-width:0.264583"
         id="path933" />
      <path
         d="m 112.05137,90.054335 c 0,-1.783647 -1.20791,-3.014137 -2.87867,-3.014137 -1.67075,0 -2.90124,1.253068 -2.90124,3.014137 0,1.761068 1.26435,3.025425 3.11573,3.025425 0.93698,0 1.76107,-0.338667 2.29165,-0.970846 l -0.45156,-0.519289 c -0.45155,0.519289 -1.09502,0.778934 -1.81751,0.778934 -1.29822,0 -2.24649,-0.82409 -2.3368,-2.065869 h 4.96711 c 0,-0.09031 0.0113,-0.180622 0.0113,-0.248355 z m -2.87867,-2.325514 c 1.16276,0 2.00943,0.812801 2.11103,1.975558 h -4.21076 c 0.1016,-1.162757 0.94827,-1.975558 2.09973,-1.975558 z"
         style="font-style:normal;font-variant:normal;font-weight:normal;font-stretch:normal;font-size:11.2889px;font-family:Montserrat;-inkscape-font-specification:Montserrat;fill:#ff0024;fill-opacity:1;stroke-width:0.264583"
         id="path935" />
      <path
         d="m 122.23393,85.843575 v -0.72249 h -5.41867 v 7.90223 h 0.83538 v -3.352803 h 4.08658 v -0.72249 h -4.08658 v -3.104447 z"
         style="font-style:normal;font-variant:normal;font-weight:normal;font-stretch:normal;font-size:11.2889px;font-family:Montserrat;-inkscape-font-specification:Montserrat;fill:#ff0024;fill-opacity:1;stroke-width:0.264583"
         id="path937" />
      <path
         d="m 126.01569,93.07976 c 1.73849,0 3.01414,-1.264357 3.01414,-3.025425 0,-1.761069 -1.27565,-3.014137 -3.01414,-3.014137 -1.73849,0 -3.02543,1.253068 -3.02543,3.014137 0,1.761068 1.28694,3.025425 3.02543,3.025425 z m 0,-0.711201 c -1.26436,0 -2.21263,-0.92569 -2.21263,-2.314224 0,-1.388535 0.94827,-2.314225 2.21263,-2.314225 1.26436,0 2.20133,0.92569 2.20133,2.314225 0,1.388534 -0.93697,2.314224 -2.20133,2.314224 z"
         style="font-style:normal;font-variant:normal;font-weight:normal;font-stretch:normal;font-size:11.2889px;font-family:Montserrat;-inkscape-font-specification:Montserrat;fill:#ff0024;fill-opacity:1;stroke-width:0.264583"
         id="path939" />
      <path
         d="m 131.43435,88.248111 v -1.162757 h -0.76765 v 5.937961 h 0.80151 V 89.99789 c 0,-1.399824 0.75636,-2.190047 1.99814,-2.190047 0.0564,0 0.12418,0.01129 0.19191,0.01129 v -0.778934 c -1.09502,0 -1.85138,0.41769 -2.22391,1.207912 z"
         style="font-style:normal;font-variant:normal;font-weight:normal;font-stretch:normal;font-size:11.2889px;font-family:Montserrat;-inkscape-font-specification:Montserrat;fill:#ff0024;fill-opacity:1;stroke-width:0.264583"
         id="path941" />
      <path
         d="m 137.50776,93.07976 c 1.00471,0 1.85138,-0.4064 2.32552,-1.174046 l -0.59832,-0.4064 c -0.4064,0.598312 -1.03858,0.869245 -1.7272,0.869245 -1.29822,0 -2.24649,-0.914401 -2.24649,-2.314224 0,-1.388535 0.94827,-2.314225 2.24649,-2.314225 0.68862,0 1.3208,0.282223 1.7272,0.880534 l 0.59832,-0.4064 c -0.47414,-0.778934 -1.32081,-1.174046 -2.32552,-1.174046 -1.77236,0 -3.05929,1.241779 -3.05929,3.014137 0,1.772357 1.28693,3.025425 3.05929,3.025425 z"
         style="font-style:normal;font-variant:normal;font-weight:normal;font-stretch:normal;font-size:11.2889px;font-family:Montserrat;-inkscape-font-specification:Montserrat;fill:#ff0024;fill-opacity:1;stroke-width:0.264583"
         id="path943" />
      <path
         d="m 146.48242,90.054335 c 0,-1.783647 -1.20791,-3.014137 -2.87867,-3.014137 -1.67075,0 -2.90124,1.253068 -2.90124,3.014137 0,1.761068 1.26435,3.025425 3.11573,3.025425 0.93698,0 1.76107,-0.338667 2.29165,-0.970846 l -0.45156,-0.519289 c -0.45155,0.519289 -1.09502,0.778934 -1.81751,0.778934 -1.29822,0 -2.24649,-0.82409 -2.3368,-2.065869 h 4.96711 c 0,-0.09031 0.0113,-0.180622 0.0113,-0.248355 z m -2.87867,-2.325514 c 1.16276,0 2.00943,0.812801 2.11103,1.975558 h -4.21076 c 0.1016,-1.162757 0.94827,-1.975558 2.09973,-1.975558 z"
         style="font-style:normal;font-variant:normal;font-weight:normal;font-stretch:normal;font-size:11.2889px;font-family:Montserrat;-inkscape-font-specification:Montserrat;fill:#ff0024;fill-opacity:1;stroke-width:0.264583"
         id="path945" />
    </g>
    <g
       aria-label="Kybermatics"
       id="text202"
       style="font-style:normal;font-variant:normal;font-weight:800;font-stretch:normal;font-size:19.7556px;line-height:1.25;font-family:Montserrat;-inkscape-font-specification:'Montserrat Ultra-Bold';fill:#162a44;fill-opacity:1;stroke-width:0.264583">
      <path
         d="m 19.455807,74.821778 -0.217312,-4.385743 5.946436,-6.381059 h 4.306721 l -5.92668,6.42057 -2.173116,2.271894 z m -3.496741,3.062118 v -13.82892 h 3.872097 v 13.82892 z m 9.285132,0 -4.504277,-5.709369 2.548472,-2.726272 6.499593,8.435641 z"
         style="font-style:normal;font-variant:normal;font-weight:800;font-stretch:normal;font-size:19.7556px;font-family:Montserrat;-inkscape-font-specification:'Montserrat Ultra-Bold';fill:#162a44;fill-opacity:1;stroke-width:0.264583"
         id="path311" />
      <path
         d="m 31.704229,81.894283 q -0.849491,0 -1.718738,-0.276579 -0.84949,-0.256823 -1.382892,-0.691446 l 1.30387,-2.627495 q 0.335845,0.296334 0.770468,0.454379 0.454379,0.177801 0.889002,0.177801 0.612424,0 0.968025,-0.276579 0.355601,-0.276578 0.612423,-0.869246 l 0.49389,-1.244603 0.296334,-0.375356 3.635031,-8.988798 h 3.575763 l -4.62281,11.142158 q -0.553157,1.382892 -1.284114,2.15336 -0.711202,0.790224 -1.600204,1.106314 -0.869246,0.31609 -1.936048,0.31609 z m 1.461914,-3.556008 -4.721588,-11.161914 h 3.852342 l 3.476985,8.652952 z"
         style="font-style:normal;font-variant:normal;font-weight:800;font-stretch:normal;font-size:19.7556px;font-family:Montserrat;-inkscape-font-specification:'Montserrat Ultra-Bold';fill:#162a44;fill-opacity:1;stroke-width:0.264583"
         id="path313" />
      <path
         d="m 48.85207,78.061696 q -1.442159,0 -2.410184,-0.592668 -0.948268,-0.592668 -1.422403,-1.817515 -0.474134,-1.224847 -0.474134,-3.14114 0,-1.876782 0.49389,-3.10163 0.513645,-1.224847 1.48167,-1.817515 0.968024,-0.592668 2.331161,-0.592668 1.461914,0 2.64725,0.671691 1.205092,0.67169 1.896538,1.916293 0.711201,1.224847 0.711201,2.923829 0,1.718737 -0.711201,2.96334 -0.691446,1.224847 -1.896538,1.916293 -1.185336,0.67169 -2.64725,0.67169 z m -6.73666,-0.1778 V 63.225241 h 3.753564 v 5.748879 l -0.197556,3.536253 0.01976,3.536252 v 1.837271 z m 5.946436,-2.805295 q 0.632179,0 1.126069,-0.296334 0.513645,-0.296334 0.809979,-0.869247 0.31609,-0.592668 0.31609,-1.402647 0,-0.80998 -0.31609,-1.363137 -0.296334,-0.572912 -0.809979,-0.869246 -0.49389,-0.296334 -1.126069,-0.296334 -0.63218,0 -1.145825,0.296334 -0.49389,0.296334 -0.80998,0.869246 -0.296334,0.553157 -0.296334,1.363137 0,0.809979 0.296334,1.402647 0.31609,0.572913 0.80998,0.869247 0.513645,0.296334 1.145825,0.296334 z"
         style="font-style:normal;font-variant:normal;font-weight:800;font-stretch:normal;font-size:19.7556px;font-family:Montserrat;-inkscape-font-specification:'Montserrat Ultra-Bold';fill:#162a44;fill-opacity:1;stroke-width:0.264583"
         id="path315" />
      <path
         d="m 61.456133,78.061696 q -1.896537,0 -3.31894,-0.711201 -1.402648,-0.730958 -2.192872,-1.97556 -0.770468,-1.264359 -0.770468,-2.864562 0,-1.600204 0.750712,-2.844807 0.770469,-1.264358 2.11385,-1.955804 1.34338,-0.711202 3.022606,-0.711202 1.580448,0 2.884318,0.651935 1.30387,0.632179 2.074338,1.876782 0.770468,1.244603 0.770468,3.022607 0,0.197556 -0.01975,0.454379 -0.01976,0.256822 -0.03951,0.474134 h -8.475153 v -1.97556 h 6.479837 l -1.422403,0.553157 q 0.01975,-0.730957 -0.276579,-1.264359 -0.276578,-0.533401 -0.790224,-0.829735 -0.49389,-0.296334 -1.16558,-0.296334 -0.67169,0 -1.185336,0.296334 -0.49389,0.296334 -0.770468,0.849491 -0.276579,0.533401 -0.276579,1.264358 v 0.572913 q 0,0.790224 0.31609,1.363136 0.335845,0.572913 0.948269,0.889002 0.612423,0.296334 1.461914,0.296334 0.790224,0 1.343381,-0.217311 0.572912,-0.237068 1.126069,-0.711202 l 1.97556,2.054582 q -0.770468,0.849491 -1.896538,1.30387 -1.126069,0.434623 -2.667006,0.434623 z"
         style="font-style:normal;font-variant:normal;font-weight:800;font-stretch:normal;font-size:19.7556px;font-family:Montserrat;-inkscape-font-specification:'Montserrat Ultra-Bold';fill:#162a44;fill-opacity:1;stroke-width:0.264583"
         id="path317" />
      <path
         d="M 68.528607,77.883896 V 67.176361 h 3.575763 v 3.121384 l -0.533401,-0.889002 q 0.474134,-1.205091 1.540937,-1.797759 1.066802,-0.612424 2.587983,-0.612424 v 3.378208 q -0.256822,-0.03951 -0.454378,-0.03951 -0.177801,-0.01976 -0.395112,-0.01976 -1.145825,0 -1.857027,0.632179 -0.711201,0.612424 -0.711201,2.015071 v 4.919145 z"
         style="font-style:normal;font-variant:normal;font-weight:800;font-stretch:normal;font-size:19.7556px;font-family:Montserrat;-inkscape-font-specification:'Montserrat Ultra-Bold';fill:#162a44;fill-opacity:1;stroke-width:0.264583"
         id="path319" />
      <path
         d="m 91.188241,66.99856 q 1.244603,0 2.212627,0.513646 0.98778,0.49389 1.540937,1.540937 0.572913,1.047046 0.572913,2.706517 v 6.124236 h -3.753564 v -5.511813 q 0,-1.145824 -0.434624,-1.65947 -0.434623,-0.533401 -1.185336,-0.533401 -0.533401,0 -0.968024,0.256823 -0.434623,0.256822 -0.67169,0.790224 -0.237068,0.513645 -0.237068,1.34338 v 5.314257 h -3.753564 v -5.511813 q 0,-1.145824 -0.434623,-1.65947 -0.414867,-0.533401 -1.185336,-0.533401 -0.553157,0 -0.98778,0.256823 -0.414867,0.256822 -0.67169,0.790224 -0.237067,0.513645 -0.237067,1.34338 v 5.314257 H 77.240788 V 67.176361 h 3.575763 v 2.983095 L 80.10535,69.309965 q 0.592668,-1.145824 1.619959,-1.718737 1.027291,-0.592668 2.291649,-0.592668 1.442159,0 2.528717,0.750713 1.106314,0.730957 1.48167,2.29165 L 86.802498,69.7841 q 0.572912,-1.30387 1.718737,-2.034827 1.165581,-0.750713 2.667006,-0.750713 z"
         style="font-style:normal;font-variant:normal;font-weight:800;font-stretch:normal;font-size:19.7556px;font-family:Montserrat;-inkscape-font-specification:'Montserrat Ultra-Bold';fill:#162a44;fill-opacity:1;stroke-width:0.264583"
         id="path321" />
      <path
         d="M 104.42446,77.883896 V 75.88858 l -0.25683,-0.49389 v -3.674541 q 0,-0.889002 -0.55315,-1.363137 -0.5334,-0.49389 -1.71874,-0.49389 -0.77047,0 -1.56069,0.256823 -0.790226,0.237067 -1.343383,0.67169 l -1.264359,-2.548472 q 0.908758,-0.592668 2.173116,-0.908758 1.284116,-0.335845 2.548476,-0.335845 2.60774,0 4.03014,1.205092 1.44216,1.185336 1.44216,3.733808 v 5.946436 z m -3.1609,0.1778 q -1.284113,0 -2.173115,-0.434623 -0.889002,-0.434623 -1.363137,-1.185336 -0.454378,-0.750713 -0.454378,-1.679226 0,-0.98778 0.49389,-1.698982 0.513645,-0.730957 1.560692,-1.106313 1.047048,-0.395112 2.706518,-0.395112 h 2.52872 v 1.955804 h -2.01508 q -0.90875,0 -1.28411,0.296334 -0.3556,0.296334 -0.3556,0.790224 0,0.49389 0.37536,0.790224 0.37535,0.296334 1.02729,0.296334 0.61242,0 1.10631,-0.296334 0.51365,-0.316089 0.75071,-0.948269 l 0.51365,1.382892 q -0.29633,1.106314 -1.16558,1.679226 -0.84949,0.553157 -2.25214,0.553157 z"
         style="font-style:normal;font-variant:normal;font-weight:800;font-stretch:normal;font-size:19.7556px;font-family:Montserrat;-inkscape-font-specification:'Montserrat Ultra-Bold';fill:#162a44;fill-opacity:1;stroke-width:0.264583"
         id="path323" />
      <path
         d="m 115.07269,78.061696 q -2.05458,0 -3.2004,-1.007535 -1.14583,-1.027292 -1.14583,-3.081874 v -9.186354 h 3.75357 v 9.146843 q 0,0.572912 0.31609,0.908757 0.31609,0.31609 0.80998,0.31609 0.67169,0 1.14582,-0.335845 l 0.92851,2.627495 q -0.47413,0.316089 -1.16558,0.454378 -0.69144,0.158045 -1.44216,0.158045 z m -5.90692,-7.684928 v -2.805295 h 7.76395 v 2.805295 z"
         style="font-style:normal;font-variant:normal;font-weight:800;font-stretch:normal;font-size:19.7556px;font-family:Montserrat;-inkscape-font-specification:'Montserrat Ultra-Bold';fill:#162a44;fill-opacity:1;stroke-width:0.264583"
         id="path325" />
      <path
         d="M 119.12257,77.883896 V 67.176361 h 3.75356 v 10.707535 z m 1.87678,-11.892871 q -1.02729,0 -1.65947,-0.572913 -0.63218,-0.572912 -0.63218,-1.422403 0,-0.849491 0.63218,-1.422403 0.63218,-0.572913 1.65947,-0.572913 1.02729,0 1.65947,0.553157 0.63218,0.533401 0.63218,1.382892 0,0.889002 -0.63218,1.48167 -0.61242,0.572913 -1.65947,0.572913 z"
         style="font-style:normal;font-variant:normal;font-weight:800;font-stretch:normal;font-size:19.7556px;font-family:Montserrat;-inkscape-font-specification:'Montserrat Ultra-Bold';fill:#162a44;fill-opacity:1;stroke-width:0.264583"
         id="path327" />
      <path
         d="m 130.77836,78.061696 q -1.778,0 -3.18065,-0.711201 -1.38289,-0.711202 -2.17312,-1.955805 -0.79022,-1.264358 -0.79022,-2.884317 0,-1.61996 0.79022,-2.864562 0.79023,-1.244603 2.17312,-1.936049 1.40265,-0.711202 3.18065,-0.711202 1.81752,0 3.14114,0.770469 1.32363,0.770468 1.87678,2.173116 l -2.90407,1.48167 q -0.37536,-0.750713 -0.92851,-1.086558 -0.55316,-0.355601 -1.20509,-0.355601 -0.65194,0 -1.18534,0.296334 -0.5334,0.296334 -0.84949,0.869246 -0.29633,0.553157 -0.29633,1.363137 0,0.829735 0.29633,1.402647 0.31609,0.572913 0.84949,0.869247 0.5334,0.296334 1.18534,0.296334 0.65193,0 1.20509,-0.335846 0.55315,-0.3556 0.92851,-1.106313 l 2.90407,1.48167 q -0.55315,1.402647 -1.87678,2.173116 -1.32362,0.770468 -3.14114,0.770468 z"
         style="font-style:normal;font-variant:normal;font-weight:800;font-stretch:normal;font-size:19.7556px;font-family:Montserrat;-inkscape-font-specification:'Montserrat Ultra-Bold';fill:#162a44;fill-opacity:1;stroke-width:0.264583"
         id="path329" />
      <path
         d="m 141.11052,78.061696 q -1.36314,0 -2.66701,-0.316089 -1.28411,-0.31609 -2.07433,-0.790224 l 1.12606,-2.568228 q 0.75072,0.454378 1.75825,0.730957 1.00754,0.256823 1.97556,0.256823 0.94827,0 1.30387,-0.197556 0.37536,-0.197556 0.37536,-0.533402 0,-0.316089 -0.3556,-0.454378 -0.33585,-0.158045 -0.90876,-0.237068 -0.55316,-0.07902 -1.22485,-0.1778 -0.67169,-0.09878 -1.36313,-0.256823 -0.67169,-0.1778 -1.24461,-0.513645 -0.55315,-0.355601 -0.889,-0.948269 -0.33584,-0.592668 -0.33584,-1.501426 0,-1.027291 0.59266,-1.817515 0.61243,-0.80998 1.77801,-1.264358 1.16558,-0.474135 2.84481,-0.474135 1.12606,0 2.27189,0.237067 1.16558,0.217312 1.9558,0.671691 l -1.12607,2.548472 q -0.79022,-0.454379 -1.58044,-0.612423 -0.79023,-0.177801 -1.50143,-0.177801 -0.94827,0 -1.34338,0.217312 -0.37536,0.217311 -0.37536,0.533401 0,0.31609 0.33585,0.49389 0.33584,0.158045 0.889,0.256823 0.57291,0.07902 1.2446,0.1778 0.67169,0.07902 1.34338,0.256823 0.69145,0.1778 1.24461,0.533401 0.57291,0.335845 0.90875,0.928513 0.33585,0.572913 0.33585,1.48167 0,0.98778 -0.61242,1.778004 -0.59267,0.790224 -1.77801,1.264359 -1.16558,0.474134 -2.90407,0.474134 z"
         style="font-style:normal;font-variant:normal;font-weight:800;font-stretch:normal;font-size:19.7556px;font-family:Montserrat;-inkscape-font-specification:'Montserrat Ultra-Bold';fill:#162a44;fill-opacity:1;stroke-width:0.264583"
         id="path331" />
    </g>
  </g>
</svg>
